<svg width="160" height="160" viewBox="0 0 160 160" fill="none" xmlns="http://www.w3.org/2000/svg">
<path d="M80 137.6C60 137.6 42.32 127.36 32 112C32.24 96 64 87.2 80 87.2C96 87.2 127.76 96 128 112C122.711 119.875 115.567 126.329 107.196 130.793C98.8261 135.258 89.4864 137.595 80 137.6ZM80 24C86.3652 24 92.4697 26.5286 96.9706 31.0294C101.471 35.5303 104 41.6348 104 48C104 54.3652 101.471 60.4697 96.9706 64.9706C92.4697 69.4714 86.3652 72 80 72C73.6348 72 67.5303 69.4714 63.0294 64.9706C58.5286 60.4697 56 54.3652 56 48C56 41.6348 58.5286 35.5303 63.0294 31.0294C67.5303 26.5286 73.6348 24 80 24ZM80 0C69.4942 0 59.0914 2.06926 49.3853 6.08964C39.6793 10.11 30.8601 16.0028 23.4315 23.4315C8.42855 38.4344 0 58.7827 0 80C0 101.217 8.42855 121.566 23.4315 136.569C30.8601 143.997 39.6793 149.89 49.3853 153.91C59.0914 157.931 69.4942 160 80 160C101.217 160 121.566 151.571 136.569 136.569C151.571 121.566 160 101.217 160 80C160 35.76 124 0 80 0Z" fill="#D9D9D9"/>
</svg>
