<svg width="170" height="164" viewBox="0 0 170 164" fill="none" xmlns="http://www.w3.org/2000/svg">
<path d="M0 109.326L38.0597 80.5597V163.022H0V109.326Z" fill="#4C4C4F"/>
<path d="M124.328 109.326L38.0597 80.5597V163.022H124.328V109.326Z" fill="#322F31"/>
<path d="M46.9403 97.0522L55.8209 99.5896V163.022H46.9403V97.0522Z" fill="#D9D9D9"/>
<path d="M62.1642 102.127L71.0448 104.469V163.022H62.1642V102.127Z" fill="#D9D9D9"/>
<path d="M78.6567 107.201L87.5373 109.348V163.022H78.6567V107.201Z" fill="#D9D9D9"/>
<path d="M93.8806 112.276L102.761 114.228V163.022H93.8806V112.276Z" fill="#D9D9D9"/>
<path d="M110.373 117.351L119.254 119.107V163.022H110.373V117.351Z" fill="#D9D9D9"/>
<path d="M21.5671 88.1716V77.3881L46.9403 57.7239V79.291L37.4253 75.4851L21.5671 88.1716Z" fill="#4D4D4E"/>
<path d="M100.858 77.3881L46.9403 57.7239V79.291L100.858 96.4179V77.3881Z" fill="#312E31"/>
<path d="M170 24.7388L119.888 0.634277V103.395L126.866 105.933V162.411H170V24.7388Z" fill="#322F31"/>
<path d="M71.0448 37.4254L119.888 0V103.396L103.396 97.0522V74.2164L71.0448 62.7985V37.4254Z" fill="#4C4C4F"/>
<path d="M129.403 18.3955L138.284 23.9093V161.754H129.403V18.3955Z" fill="#D9D9D9"/>
<path d="M143.358 29.8134L152.239 34.888V161.754H143.358V29.8134Z" fill="#D9D9D9"/>
<path d="M157.313 39.9626L166.194 44.6469V161.754H157.313V39.9626Z" fill="#D9D9D9"/>
<path d="M73.5821 39.9627L79.291 36.1567V45.6717L73.5821 48.8433V39.9627Z" fill="#D9D9D9"/>
<path d="M22.8358 78.1493L26.6418 75.4851V82.1456L22.8358 84.3657V78.1493Z" fill="#D9D9D9"/>
<path d="M81.194 34.888L86.903 31.082V40.597L81.194 43.7686V34.888Z" fill="#D9D9D9"/>
</svg>
