<svg width="192" height="159" viewBox="0 0 192 159" fill="none" xmlns="http://www.w3.org/2000/svg">
<path d="M0 77.9185L58.7755 34.4819V159H0V77.9185Z" fill="#4C4C4F"/>
<path d="M192 77.9185L58.7755 34.4819V159H192V77.9185Z" fill="#322F31"/>
<path d="M72.4898 59.3855L86.2041 63.2168V159H72.4898V59.3855Z" fill="#D9D9D9"/>
<path d="M96 67.0482L109.714 70.5848V159H96V67.0482Z" fill="#D9D9D9"/>
<path d="M121.469 74.7108L135.184 77.9527V159H121.469V74.7108Z" fill="#D9D9D9"/>
<path d="M144.98 82.3735L158.694 85.3207V159H144.98V82.3735Z" fill="#D9D9D9"/>
<path d="M170.449 90.0363L184.163 92.6887V159H170.449V90.0363Z" fill="#D9D9D9"/>
<path d="M33.3061 45.9759V29.6928L72.4898 0V32.5663L57.7959 26.8193L33.3061 45.9759Z" fill="#4D4D4E"/>
<path d="M155.755 29.6928L72.4898 0V32.5663L155.755 58.4277V29.6928Z" fill="#312E31"/>
</svg>
