<svg width="253" height="107" viewBox="0 0 253 107" fill="none" xmlns="http://www.w3.org/2000/svg">
<path d="M17.6266 58.0181L166.935 50.5527V106.543H17.6266V58.0181Z" fill="#212121"/>
<path d="M140.806 52.4189V24.4236C140.806 24.4236 144.995 6.90235 153.87 2.02744C162.175 -2.5343 178.133 2.02744 178.133 2.02744L252.787 37.4881V106.543H166.935V52.4189H140.806Z" fill="black"/>
<rect x="36.2902" y="76.6816" width="48.5251" height="22.3962" fill="#D9D9D9"/>
<rect x="103.479" y="72.949" width="48.5251" height="33.5943" fill="#D9D9D9"/>
<rect x="103.479" y="72.949" width="7.4654" height="33.5943" fill="#A6A6A6"/>
<rect x="36.2902" y="76.6816" width="7.4654" height="22.3962" fill="#A6A6A6"/>
<path d="M26.9584 18.8247L163.202 0.161255C163.202 0.161255 152.004 0.161255 146.405 9.493C143.701 13.9999 140.806 22.5574 140.806 22.5574V52.419L0.829529 58.0181V41.2209C0.829529 41.2209 3.19294 34.396 8.29493 30.0228C13.3969 25.6497 26.9584 18.8247 26.9584 18.8247Z" fill="#FAFAFA"/>
<path d="M12.0276 57.8569L0.829489 58.0182C0.829489 56.7739 -1.03684 52.2578 0.829489 41.221C4.56219 27.9953 18.8709 22.5575 26.9584 18.8248C13.8939 26.2902 10.7834 47.2809 12.0276 57.8569Z" fill="#D9D9D9"/>
<path d="M45.6219 56.1514H32.5574V35.6216C34.0505 26.6631 38.1565 13.2258 58.6863 15.0917C47.4882 24.4235 44.3776 45.5754 45.6219 56.1514Z" fill="#D9D9D9"/>
<path d="M90.4142 54.2852L73.6171 54.2854C73.6171 52.9339 71.7507 43.0873 73.6171 31.9843C82.9488 11.3594 77.3498 11.3594 107.211 7.62671C92.8138 17.7635 88.8145 42.7969 90.4142 54.2852Z" fill="#D9D9D9"/>
<path d="M140.806 52.419H120.276C120.276 51.0675 118.41 39.3546 122.972 26.3852C132.303 5.7603 125.875 3.89395 159.469 0.161255C145.072 10.298 139.206 40.9307 140.806 52.419Z" fill="#D9D9D9"/>
</svg>
