<svg width="538" height="86" viewBox="0 0 538 86" fill="none" xmlns="http://www.w3.org/2000/svg">
<path d="M89.8645 20.6013C89.8645 21.7013 90.0845 22.6613 90.5245 23.4813C90.9645 24.3213 91.6245 24.9613 92.4645 25.4213C93.3045 25.9013 94.3045 26.1213 95.4245 26.1213C95.6445 26.1213 96.0045 26.1213 96.5045 26.0813C97.0045 26.0413 97.6845 25.9413 98.5445 25.7613C99.3845 25.6013 100.005 25.3613 100.385 25.0813V17.7613H95.5045V19.9613H97.7845V23.7213C97.2045 23.8613 96.4245 23.9213 95.4245 23.9213C94.5045 23.9213 93.7845 23.6413 93.2645 23.0413C92.7245 22.4613 92.4645 21.6413 92.4645 20.6013V17.0413C92.4645 14.8613 93.5245 13.7613 95.6645 13.7613C97.1045 13.7613 98.3645 14.1013 99.4645 14.7613L100.605 12.8213C99.8845 12.4213 99.0845 12.1013 98.1645 11.8813C97.2445 11.6813 96.4245 11.5613 95.6645 11.5613C95.0045 11.5613 94.4045 11.6213 93.8645 11.7413C93.3045 11.8613 92.8445 12.0013 92.4445 12.2013C92.0445 12.4013 91.7045 12.6613 91.4045 12.9413C91.0845 13.2213 90.8445 13.5213 90.6645 13.8413C90.4645 14.1613 90.3045 14.5013 90.1845 14.8613C90.0645 15.2413 89.9645 15.6013 89.9245 15.9413C89.8845 16.3013 89.8645 16.6613 89.8645 17.0413V20.6013ZM102.06 21.2813C102.06 22.2413 102.3 23.1013 102.82 23.8613C103.34 24.6213 104 25.1813 104.82 25.5813C105.64 25.9813 106.54 26.1613 107.52 26.1613C108.48 26.1613 109.38 25.9813 110.22 25.5813C111.04 25.1813 111.7 24.6213 112.22 23.8613C112.74 23.1013 113 22.2413 113 21.2813V16.3613C113 15.6413 112.84 14.9813 112.54 14.3613C112.24 13.7613 111.84 13.2413 111.34 12.8413C110.82 12.4413 110.24 12.1213 109.58 11.9013C108.92 11.6813 108.24 11.5613 107.52 11.5613C106.56 11.5613 105.66 11.7613 104.84 12.1413C104.02 12.5213 103.36 13.0813 102.84 13.8213C102.32 14.5613 102.06 15.4013 102.06 16.3613V21.2813ZM110.4 21.2813C110.4 22.1213 110.12 22.7613 109.56 23.2413C109 23.7213 108.32 23.9613 107.52 23.9613C106.72 23.9613 106.04 23.7213 105.48 23.2413C104.92 22.7613 104.66 22.1213 104.66 21.2813V16.3613C104.66 15.5613 104.92 14.9213 105.48 14.4613C106.02 14.0013 106.7 13.7613 107.52 13.7613C108.32 13.7613 109 14.0013 109.56 14.4613C110.12 14.9213 110.4 15.5613 110.4 16.3613V21.2813ZM114.677 11.8613V25.8613H120.617C123.657 25.8613 125.197 24.4613 125.197 21.6413C125.197 19.9613 124.557 18.8413 123.277 18.2813C123.717 18.0813 124.077 17.7413 124.357 17.3013C124.637 16.8613 124.777 16.3013 124.777 15.6613C124.777 14.3813 124.377 13.4413 123.617 12.8013C122.857 12.1813 121.837 11.8613 120.577 11.8613H114.677ZM117.277 17.3013V14.0613H120.537C121.617 14.0613 122.177 14.6013 122.177 15.6613C122.177 16.0613 122.077 16.3813 121.917 16.6413C121.757 16.9013 121.577 17.0813 121.377 17.1613C121.177 17.2613 120.957 17.3013 120.757 17.3013H117.277ZM117.277 23.6613V19.5013H120.717C120.997 19.5013 121.237 19.5413 121.457 19.6213C121.677 19.7013 121.877 19.8413 122.057 20.0013C122.217 20.1613 122.357 20.3813 122.457 20.6613C122.537 20.9413 122.597 21.2813 122.597 21.6413C122.597 22.0613 122.537 22.4013 122.437 22.6813C122.317 22.9613 122.177 23.1813 121.977 23.3013C121.777 23.4413 121.557 23.5413 121.337 23.5813C121.117 23.6413 120.857 23.6613 120.557 23.6613H117.277ZM126.755 11.8613V25.8613H129.375V11.8613H126.755ZM131.528 11.8613V25.8613H140.988V23.6613H134.148V19.7413H140.208V17.5413H134.148V14.0613H140.808V11.8613H131.528ZM142.493 11.8613V25.8613H145.113V20.7413H147.433L150.633 25.8613H153.553L150.073 20.3813C151.033 20.1413 151.753 19.6413 152.233 18.9213C152.713 18.2013 152.973 17.3413 152.973 16.3013C152.973 14.9813 152.593 13.9013 151.833 13.0813C151.073 12.2813 149.933 11.8613 148.433 11.8613H142.493ZM145.113 18.5413V14.0613H148.433C149.073 14.0613 149.573 14.2613 149.893 14.6613C150.213 15.0613 150.373 15.6013 150.373 16.3013C150.373 17.0213 150.213 17.5613 149.893 17.9613C149.573 18.3613 149.073 18.5413 148.433 18.5413H145.113ZM163.057 11.8613V20.7813L157.217 11.8613H154.957V25.8613H157.557V16.9013L163.457 25.8613H165.657V11.8613H163.057ZM167.165 21.2813C167.165 22.2413 167.405 23.1013 167.925 23.8613C168.445 24.6213 169.105 25.1813 169.925 25.5813C170.745 25.9813 171.645 26.1613 172.625 26.1613C173.585 26.1613 174.485 25.9813 175.325 25.5813C176.145 25.1813 176.805 24.6213 177.325 23.8613C177.845 23.1013 178.105 22.2413 178.105 21.2813V16.3613C178.105 15.6413 177.945 14.9813 177.645 14.3613C177.345 13.7613 176.945 13.2413 176.445 12.8413C175.925 12.4413 175.345 12.1213 174.685 11.9013C174.025 11.6813 173.345 11.5613 172.625 11.5613C171.665 11.5613 170.765 11.7613 169.945 12.1413C169.125 12.5213 168.465 13.0813 167.945 13.8213C167.425 14.5613 167.165 15.4013 167.165 16.3613V21.2813ZM175.505 21.2813C175.505 22.1213 175.225 22.7613 174.665 23.2413C174.105 23.7213 173.425 23.9613 172.625 23.9613C171.825 23.9613 171.145 23.7213 170.585 23.2413C170.025 22.7613 169.765 22.1213 169.765 21.2813V16.3613C169.765 15.5613 170.025 14.9213 170.585 14.4613C171.125 14.0013 171.805 13.7613 172.625 13.7613C173.425 13.7613 174.105 14.0013 174.665 14.4613C175.225 14.9213 175.505 15.5613 175.505 16.3613V21.2813ZM185.278 11.8613V25.8613H190.438C191.398 25.8613 192.298 25.6813 193.138 25.2813C193.958 24.8813 194.618 24.3213 195.138 23.5613C195.638 22.8213 195.898 21.9613 195.898 21.0013V16.6613C195.898 15.7013 195.638 14.8613 195.118 14.1213C194.598 13.3813 193.938 12.8213 193.118 12.4413C192.278 12.0613 191.398 11.8613 190.438 11.8613H185.278ZM193.298 21.0013C193.298 21.8413 193.018 22.4813 192.458 22.9613C191.898 23.4413 191.238 23.6613 190.438 23.6613H187.878V14.0613H190.438C190.958 14.0613 191.418 14.1613 191.858 14.3613C192.278 14.5613 192.618 14.8413 192.898 15.2413C193.158 15.6413 193.298 16.1213 193.298 16.6613V21.0013ZM197.591 11.8613V25.8613H207.051V23.6613H200.211V19.7413H206.271V17.5413H200.211V14.0613H206.871V11.8613H197.591Z" fill="#90234C"/>
<path d="M90.2445 58.1691C94.0045 59.4891 97.2445 60.1291 99.9645 60.1291C100.605 60.1291 101.125 60.1291 101.565 60.0891C102.005 60.0891 102.565 60.0491 103.205 59.9691C103.845 59.8891 104.445 59.7691 104.925 59.6091C105.405 59.4491 105.925 59.2491 106.485 59.0091C107.045 58.7691 107.485 58.4091 107.885 57.9691C108.285 57.5691 108.645 57.0491 108.965 56.4891C109.285 55.9291 109.565 55.2491 109.725 54.4491C109.885 53.6491 110.005 52.7291 110.005 51.7291C110.005 50.9291 109.885 50.2091 109.685 49.4891C109.485 48.8091 109.245 48.2091 109.005 47.6891C108.725 47.2091 108.325 46.7291 107.805 46.2491C107.245 45.7691 106.805 45.4091 106.405 45.1291C106.005 44.8891 105.405 44.5691 104.645 44.2491C103.885 43.9291 103.285 43.6491 102.885 43.4891C102.445 43.3291 101.805 43.1291 100.965 42.8091C100.285 42.6091 99.7645 42.4491 99.4045 42.2891C99.0445 42.1691 98.6045 41.9691 98.1245 41.7291C97.6445 41.4891 97.2445 41.2091 97.0045 40.9691C96.7645 40.7291 96.5245 40.4491 96.3245 40.0491C96.1245 39.6491 96.0445 39.2091 96.0445 38.7291C96.0445 36.4491 97.5645 35.2891 100.645 35.2891C102.485 35.2891 104.565 36.0091 106.805 37.3691L109.245 33.5291C107.885 32.5691 106.405 31.8891 104.885 31.4891C103.325 31.0891 101.925 30.8891 100.645 30.8891C98.8045 30.8891 97.2045 31.1291 95.8845 31.5291C94.5245 31.9691 93.5245 32.5691 92.8045 33.3291C92.0845 34.1291 91.6045 34.9291 91.2845 35.8091C90.9645 36.6891 90.8445 37.6891 90.8445 38.7291C90.8445 39.7291 91.0045 40.6491 91.3645 41.4491C91.7245 42.2891 92.1645 42.9691 92.6845 43.4891C93.1645 44.0091 93.8445 44.5291 94.6845 45.0091C95.5245 45.4891 96.2845 45.8891 96.9245 46.1291C97.5645 46.3691 98.4045 46.6491 99.4045 46.9691C100.205 47.2891 100.885 47.5291 101.405 47.7691C101.925 48.0091 102.485 48.2891 103.085 48.6491C103.645 49.0491 104.085 49.4891 104.365 50.0091C104.645 50.5291 104.805 51.0891 104.805 51.7291C104.805 52.6091 104.645 53.2891 104.405 53.8491C104.125 54.4091 103.725 54.8491 103.245 55.0891C102.725 55.3291 102.205 55.5291 101.725 55.6091C101.245 55.6891 100.645 55.7291 99.9645 55.7291C98.8045 55.7291 97.6445 55.6091 96.4445 55.3691C95.2445 55.1291 93.6045 54.6491 91.5245 53.9691L90.2445 58.1691ZM122.471 31.4891L112.311 59.4891H117.751L119.791 53.8091H129.271L131.351 59.4891H136.751L126.591 31.4891H122.471ZM128.151 49.8891H120.831L124.511 39.2491L128.151 49.8891ZM156.353 31.4891V49.3291L144.673 31.4891H140.153V59.4891H145.353V41.5691L157.153 59.4891H161.553V31.4891H156.353ZM179.92 31.4891V58.2891C179.92 58.8491 179.76 59.3291 179.48 59.8091C179.16 60.2891 178.76 60.6891 178.2 61.0091C177.64 61.3691 177.12 61.6491 176.72 61.8491C176.28 62.0891 175.76 62.2891 175.2 62.4891L176.72 66.0891C176.76 66.0891 176.84 66.0491 177 65.9691C177.52 65.8091 177.96 65.6891 178.28 65.5691C178.6 65.4491 179.04 65.2491 179.68 64.9691C180.32 64.6891 180.84 64.4091 181.28 64.1691C181.68 63.9291 182.16 63.5691 182.68 63.1291C183.2 62.7291 183.64 62.2891 183.96 61.8091C184.28 61.3691 184.52 60.8491 184.76 60.2091C185 59.6091 185.12 58.9691 185.12 58.2891V31.4891H179.92ZM206.954 31.4891V49.7691C206.954 51.0491 206.714 52.1291 206.314 53.0091C205.914 53.8891 205.274 54.5691 204.434 55.0091C203.594 55.4891 202.554 55.6891 201.314 55.6891C199.474 55.6891 198.074 55.2091 197.114 54.2091C196.154 53.2091 195.714 51.7291 195.714 49.7691V31.4891H190.474V49.7691C190.474 53.0091 191.394 55.5291 193.274 57.3691C195.114 59.2091 197.794 60.1291 201.314 60.1291C204.834 60.1291 207.514 59.2091 209.394 57.3691C211.234 55.5291 212.194 53.0091 212.194 49.7691V31.4891H206.954ZM224.424 31.4891L214.264 59.4891H219.704L221.744 53.8091H231.224L233.304 59.4891H238.704L228.544 31.4891H224.424ZM230.104 49.8891H222.784L226.464 39.2491L230.104 49.8891ZM258.306 31.4891V49.3291L246.626 31.4891H242.106V59.4891H247.306V41.5691L259.106 59.4891H263.506V31.4891H258.306Z" fill="#90234C"/>
<path d="M90.2445 58.1691L89.7662 58.0233L89.6264 58.482L90.0789 58.6408L90.2445 58.1691ZM101.565 60.0891V59.5891H101.542L101.519 59.5911L101.565 60.0891ZM103.205 59.9691L103.142 59.4729L103.205 59.9691ZM104.925 59.6091L105.083 60.0834L104.925 59.6091ZM106.485 59.0091L106.288 58.5495L106.485 59.0091ZM107.885 57.9691L107.531 57.6155L107.523 57.6239L107.515 57.6327L107.885 57.9691ZM108.965 56.4891L108.53 56.241L108.965 56.4891ZM109.725 54.4491L110.215 54.5471L109.725 54.4491ZM109.685 49.4891L110.166 49.3552L110.164 49.348L109.685 49.4891ZM109.005 47.6891L109.458 47.4795L109.448 47.4578L109.436 47.4371L109.005 47.6891ZM107.805 46.2491L108.144 45.8817L108.137 45.8754L108.13 45.8694L107.805 46.2491ZM106.405 45.1291L106.691 44.7195L106.677 44.7094L106.662 44.7003L106.405 45.1291ZM104.645 44.2491L104.45 44.7099H104.45L104.645 44.2491ZM102.885 43.4891L103.07 43.0248L103.063 43.0219L103.055 43.0192L102.885 43.4891ZM100.965 42.8091L101.143 42.3418L101.124 42.3349L101.106 42.3294L100.965 42.8091ZM99.4045 42.2891L99.6076 41.8322L99.5855 41.8224L99.5626 41.8147L99.4045 42.2891ZM98.1245 41.7291L98.3481 41.2819L98.3481 41.2819L98.1245 41.7291ZM97.0045 40.9691L97.3581 40.6155H97.3581L97.0045 40.9691ZM96.3245 40.0491L96.7717 39.8255L96.7717 39.8255L96.3245 40.0491ZM106.805 37.3691L106.545 37.7965L106.964 38.0507L107.227 37.6372L106.805 37.3691ZM109.245 33.5291L109.667 33.7972L109.922 33.3952L109.533 33.1206L109.245 33.5291ZM104.885 31.4891L105.012 31.0055L105.009 31.0047L104.885 31.4891ZM95.8845 31.5291L95.7395 31.0505L95.7306 31.0533L95.8845 31.5291ZM92.8045 33.3291L92.4414 32.9851L92.4329 32.9946L92.8045 33.3291ZM91.2845 35.8091L91.7544 35.9799H91.7544L91.2845 35.8091ZM91.3645 41.4491L91.8242 41.2521L91.8205 41.2439L91.3645 41.4491ZM92.6845 43.4891L93.0519 43.1499L93.0451 43.1426L93.0381 43.1355L92.6845 43.4891ZM96.9245 46.1291L97.1001 45.6609H97.1001L96.9245 46.1291ZM99.4045 46.9691L99.5902 46.5048L99.5738 46.4983L99.5569 46.4929L99.4045 46.9691ZM101.405 47.7691L101.195 48.2231L101.405 47.7691ZM103.085 48.6491L103.375 48.2422L103.359 48.2306L103.342 48.2203L103.085 48.6491ZM104.365 50.0091L103.924 50.2461L104.365 50.0091ZM104.405 53.8491L104.852 54.0727L104.858 54.0595L104.864 54.046L104.405 53.8491ZM103.245 55.0891L103.454 55.5431L103.461 55.5398L103.468 55.5363L103.245 55.0891ZM101.725 55.6091L101.807 56.1023L101.725 55.6091ZM96.4445 55.3691L96.5426 54.8788L96.4445 55.3691ZM91.5245 53.9691L91.6799 53.4938L91.195 53.3353L91.0462 53.8233L91.5245 53.9691ZM90.0789 58.6408C93.8719 59.9724 97.1701 60.6291 99.9645 60.6291V59.6291C97.319 59.6291 94.1371 59.0057 90.4101 57.6973L90.0789 58.6408ZM99.9645 60.6291C100.597 60.6291 101.142 60.6295 101.61 60.587L101.519 59.5911C101.107 59.6286 100.612 59.6291 99.9645 59.6291V60.6291ZM101.565 60.5891C102.032 60.5891 102.613 60.5468 103.267 60.4652L103.142 59.4729C102.516 59.5513 101.977 59.5891 101.565 59.5891V60.5891ZM103.267 60.4652C103.925 60.3829 104.56 60.2575 105.083 60.0834L104.766 59.1347C104.329 59.2807 103.764 59.3953 103.142 59.4729L103.267 60.4652ZM105.083 60.0834C105.578 59.9183 106.111 59.713 106.681 59.4686L106.288 58.5495C105.738 58.7851 105.231 58.9799 104.766 59.1347L105.083 60.0834ZM106.681 59.4686C107.326 59.1926 107.822 58.7814 108.254 58.3054L107.515 57.6327C107.147 58.0368 106.763 58.3456 106.288 58.5495L106.681 59.4686ZM108.238 58.3226C108.682 57.8792 109.067 57.3175 109.399 56.7371L108.53 56.241C108.222 56.7807 107.888 57.259 107.531 57.6155L108.238 58.3226ZM109.399 56.7371C109.743 56.1346 110.043 55.4043 110.215 54.5471L109.234 54.351C109.086 55.0938 108.826 55.7235 108.53 56.241L109.399 56.7371ZM110.215 54.5471C110.38 53.7223 110.505 52.7688 110.505 51.7291H109.505C109.505 52.6893 109.389 53.5759 109.234 54.351L110.215 54.5471ZM110.505 51.7291C110.505 50.8761 110.376 50.1106 110.166 49.3553L109.203 49.6229C109.393 50.3075 109.505 50.9821 109.505 51.7291H110.505ZM110.164 49.348C109.956 48.6404 109.707 48.0174 109.458 47.4795L108.551 47.8986C108.782 48.4008 109.013 48.9777 109.205 49.6302L110.164 49.348ZM109.436 47.4371C109.126 46.9044 108.691 46.3866 108.144 45.8817L107.465 46.6165C107.958 47.0715 108.323 47.5137 108.573 47.941L109.436 47.4371ZM108.13 45.8694C107.568 45.3879 107.113 45.0144 106.691 44.7195L106.118 45.5387C106.496 45.8038 106.921 46.1502 107.479 46.6287L108.13 45.8694ZM106.662 44.7003C106.242 44.4485 105.621 44.1177 104.839 43.7883L104.45 44.7099C105.188 45.0205 105.767 45.3297 106.147 45.5578L106.662 44.7003ZM104.839 43.7883C104.114 43.4831 103.466 43.1833 103.07 43.0248L102.699 43.9533C103.103 44.1148 103.655 44.3751 104.45 44.7099L104.839 43.7883ZM103.055 43.0192C102.576 42.8447 101.991 42.6649 101.143 42.3418L100.787 43.2763C101.618 43.5932 102.313 43.8134 102.714 43.959L103.055 43.0192ZM101.106 42.3294C100.417 42.1269 99.9314 41.9761 99.6076 41.8322L99.2014 42.746C99.5976 42.9221 100.152 43.0912 100.823 43.2888L101.106 42.3294ZM99.5626 41.8147C99.2375 41.7063 98.8232 41.5194 98.3481 41.2819L97.9009 42.1763C98.3858 42.4187 98.8516 42.6318 99.2464 42.7634L99.5626 41.8147ZM98.3481 41.2819C97.9003 41.0579 97.5493 40.8067 97.3581 40.6155L96.651 41.3226C96.9398 41.6114 97.3887 41.9202 97.9009 42.1763L98.3481 41.2819ZM97.3581 40.6155C97.1407 40.3981 96.9396 40.1612 96.7717 39.8255L95.8773 40.2727C96.1095 40.737 96.3884 41.06 96.651 41.3226L97.3581 40.6155ZM96.7717 39.8255C96.6151 39.5121 96.5445 39.1534 96.5445 38.7291H95.5445C95.5445 39.2648 95.634 39.786 95.8773 40.2727L96.7717 39.8255ZM96.5445 38.7291C96.5445 37.711 96.8763 37.015 97.4899 36.5538C98.1303 36.0725 99.153 35.7891 100.645 35.7891V34.7891C99.056 34.7891 97.7788 35.0857 96.8891 35.7544C95.9727 36.4432 95.5445 37.4672 95.5445 38.7291H96.5445ZM100.645 35.7891C102.359 35.7891 104.348 36.4624 106.545 37.7965L107.064 36.9417C104.781 35.5558 102.61 34.7891 100.645 34.7891V35.7891ZM107.227 37.6372L109.667 33.7972L108.823 33.2609L106.383 37.1009L107.227 37.6372ZM109.533 33.1206C108.124 32.1261 106.589 31.4207 105.012 31.0055L104.757 31.9726C106.22 32.3574 107.645 33.012 108.956 33.9376L109.533 33.1206ZM105.009 31.0047C103.419 30.5971 101.976 30.3891 100.645 30.3891V31.3891C101.873 31.3891 103.23 31.5811 104.76 31.9734L105.009 31.0047ZM100.645 30.3891C98.7621 30.3891 97.1125 30.6345 95.7395 31.0506L96.0295 32.0076C97.2965 31.6237 98.8469 31.3891 100.645 31.3891V30.3891ZM95.7306 31.0533C94.3125 31.5122 93.2328 32.1499 92.4415 32.9852L93.1675 33.6729C93.8162 32.9882 94.7366 32.426 96.0384 32.0048L95.7306 31.0533ZM92.4329 32.9946C91.673 33.8388 91.1581 34.6936 90.8146 35.6382L91.7544 35.9799C92.0509 35.1645 92.496 34.4193 93.1762 33.6636L92.4329 32.9946ZM90.8146 35.6382C90.4679 36.5917 90.3445 37.6548 90.3445 38.7291H91.3445C91.3445 37.7233 91.4612 36.7864 91.7544 35.9799L90.8146 35.6382ZM90.3445 38.7291C90.3445 39.7804 90.5125 40.7742 90.9086 41.6543L91.8205 41.2439C91.4965 40.524 91.3445 39.6777 91.3445 38.7291H90.3445ZM90.9049 41.646C91.2841 42.5308 91.7565 43.2682 92.331 43.8426L93.0381 43.1355C92.5725 42.67 92.1649 42.0474 91.8241 41.2521L90.9049 41.646ZM92.3171 43.8282C92.841 44.3958 93.5656 44.9456 94.4364 45.4432L94.9326 44.575C94.1234 44.1126 93.488 43.6224 93.0519 43.1499L92.3171 43.8282ZM94.4364 45.4432C95.279 45.9246 96.0686 46.3421 96.749 46.5972L97.1001 45.6609C96.5004 45.436 95.77 45.0535 94.9326 44.575L94.4364 45.4432ZM96.749 46.5972C97.4012 46.8418 98.251 47.1249 99.2521 47.4453L99.5569 46.4929C98.558 46.1732 97.7279 45.8963 97.1001 45.6609L96.749 46.5972ZM99.2188 47.4333C100.049 47.7654 100.689 47.9897 101.195 48.2231L101.614 47.3151C101.08 47.0684 100.36 46.8128 99.5902 46.5048L99.2188 47.4333ZM101.195 48.2231C101.704 48.4581 102.247 48.7298 102.827 49.0778L103.342 48.2203C102.722 47.8484 102.145 47.56 101.614 47.3151L101.195 48.2231ZM102.794 49.0559C103.316 49.429 103.692 49.8157 103.924 50.2461L104.805 49.772C104.477 49.1625 103.973 48.6692 103.375 48.2422L102.794 49.0559ZM103.924 50.2461C104.168 50.6997 104.305 51.1788 104.305 51.7291H105.305C105.305 50.9994 105.121 50.3585 104.805 49.772L103.924 50.2461ZM104.305 51.7291C104.305 52.5448 104.157 53.1575 103.945 53.6521L104.864 54.046C105.132 53.4207 105.305 52.6733 105.305 51.7291H104.305ZM103.957 53.6255C103.713 54.1133 103.382 54.4612 103.021 54.6419L103.468 55.5363C104.067 55.2369 104.536 54.7049 104.852 54.0727L103.957 53.6255ZM103.035 54.6351C102.527 54.8695 102.055 55.047 101.642 55.1159L101.807 56.1023C102.354 56.0111 102.922 55.7886 103.454 55.5431L103.035 54.6351ZM101.642 55.1159C101.198 55.1899 100.628 55.2291 99.9645 55.2291V56.2291C100.661 56.2291 101.291 56.1883 101.807 56.1023L101.642 55.1159ZM99.9645 55.2291C98.8398 55.2291 97.7126 55.1128 96.5426 54.8788L96.3465 55.8594C97.5764 56.1054 98.7693 56.2291 99.9645 56.2291V55.2291ZM96.5426 54.8788C95.3739 54.645 93.758 54.1732 91.6799 53.4938L91.3691 54.4443C93.451 55.1249 95.1152 55.6131 96.3465 55.8594L96.5426 54.8788ZM91.0462 53.8233L89.7662 58.0233L90.7228 58.3148L92.0028 54.1148L91.0462 53.8233ZM122.471 31.4891V30.9891H122.121L122.001 31.3185L122.471 31.4891ZM112.311 59.4891L111.841 59.3185L111.598 59.9891H112.311V59.4891ZM117.751 59.4891V59.9891H118.103L118.222 59.6581L117.751 59.4891ZM119.791 53.8091V53.3091H119.439L119.321 53.6401L119.791 53.8091ZM129.271 53.8091L129.741 53.6371L129.62 53.3091H129.271V53.8091ZM131.351 59.4891L130.882 59.661L131.002 59.9891H131.351V59.4891ZM136.751 59.4891V59.9891H137.464L137.221 59.3185L136.751 59.4891ZM126.591 31.4891L127.061 31.3185L126.942 30.9891H126.591V31.4891ZM128.151 49.8891V50.3891H128.851L128.624 49.7272L128.151 49.8891ZM120.831 49.8891L120.359 49.7256L120.129 50.3891H120.831V49.8891ZM124.511 39.2491L124.984 39.0872L124.514 37.7119L124.039 39.0856L124.511 39.2491ZM122.001 31.3185L111.841 59.3185L112.781 59.6596L122.941 31.6596L122.001 31.3185ZM112.311 59.9891H117.751V58.9891H112.311V59.9891ZM118.222 59.6581L120.262 53.9781L119.321 53.6401L117.281 59.3201L118.222 59.6581ZM119.791 54.3091H129.271V53.3091H119.791V54.3091ZM128.802 53.981L130.882 59.661L131.821 59.3171L129.741 53.6371L128.802 53.981ZM131.351 59.9891H136.751V58.9891H131.351V59.9891ZM137.221 59.3185L127.061 31.3185L126.121 31.6596L136.281 59.6596L137.221 59.3185ZM126.591 30.9891H122.471V31.9891H126.591V30.9891ZM128.151 49.3891H120.831V50.3891H128.151V49.3891ZM121.304 50.0525L124.984 39.4125L124.039 39.0856L120.359 49.7256L121.304 50.0525ZM124.038 39.4109L127.678 50.0509L128.624 49.7272L124.984 39.0872L124.038 39.4109ZM156.353 31.4891V30.9891H155.853V31.4891H156.353ZM156.353 49.3291L155.934 49.603L156.853 51.0056V49.3291H156.353ZM144.673 31.4891L145.091 31.2152L144.943 30.9891H144.673V31.4891ZM140.153 31.4891V30.9891H139.653V31.4891H140.153ZM140.153 59.4891H139.653V59.9891H140.153V59.4891ZM145.353 59.4891V59.9891H145.853V59.4891H145.353ZM145.353 41.5691L145.77 41.2941L144.853 39.9006V41.5691H145.353ZM157.153 59.4891L156.735 59.7641L156.883 59.9891H157.153V59.4891ZM161.553 59.4891V59.9891H162.053V59.4891H161.553ZM161.553 31.4891H162.053V30.9891H161.553V31.4891ZM155.853 31.4891V49.3291H156.853V31.4891H155.853ZM156.771 49.0552L145.091 31.2152L144.254 31.7629L155.934 49.603L156.771 49.0552ZM144.673 30.9891H140.153V31.9891H144.673V30.9891ZM139.653 31.4891V59.4891H140.653V31.4891H139.653ZM140.153 59.9891H145.353V58.9891H140.153V59.9891ZM145.853 59.4891V41.5691H144.853V59.4891H145.853ZM144.935 41.8441L156.735 59.7641L157.57 59.2141L145.77 41.2941L144.935 41.8441ZM157.153 59.9891H161.553V58.9891H157.153V59.9891ZM162.053 59.4891V31.4891H161.053V59.4891H162.053ZM161.553 30.9891H156.353V31.9891H161.553V30.9891ZM179.92 31.4891V30.9891H179.42V31.4891H179.92ZM179.48 59.8091L179.896 60.0864L179.905 60.074L179.912 60.061L179.48 59.8091ZM178.2 61.0091L177.952 60.575L177.941 60.5814L177.93 60.5885L178.2 61.0091ZM176.72 61.8491L176.497 61.4019L176.489 61.4059L176.481 61.4101L176.72 61.8491ZM175.2 62.4891L175.032 62.0182L174.534 62.1962L174.74 62.6836L175.2 62.4891ZM176.72 66.0891L176.26 66.2836L176.389 66.5891H176.72V66.0891ZM177 65.9691L176.853 65.4912L176.814 65.5034L176.777 65.5219L177 65.9691ZM178.28 65.5691L178.456 66.0372L178.28 65.5691ZM179.68 64.9691L179.48 64.511L179.68 64.9691ZM181.28 64.1691L181.52 64.608L181.529 64.6031L181.538 64.5978L181.28 64.1691ZM182.68 63.1291L182.376 62.7328L182.366 62.7399L182.357 62.7474L182.68 63.1291ZM183.96 61.8091L183.556 61.515L183.55 61.5232L183.544 61.5317L183.96 61.8091ZM184.76 60.2091L184.296 60.0233L184.292 60.0335L184.76 60.2091ZM185.12 31.4891H185.62V30.9891H185.12V31.4891ZM179.42 31.4891V58.2891H180.42V31.4891H179.42ZM179.42 58.2891C179.42 58.7426 179.294 59.1364 179.049 59.5571L179.912 60.061C180.227 59.5217 180.42 58.9556 180.42 58.2891H179.42ZM179.064 59.5317C178.784 59.953 178.439 60.2968 177.952 60.575L178.449 61.4432C179.082 61.0813 179.537 60.6252 179.896 60.0864L179.064 59.5317ZM177.93 60.5885C177.389 60.9364 176.885 61.2077 176.497 61.4019L176.944 62.2963C177.356 62.0905 177.892 61.8017 178.471 61.4297L177.93 60.5885ZM176.481 61.4101C176.078 61.6298 175.591 61.8188 175.032 62.0182L175.369 62.9599C175.93 62.7594 176.483 62.5484 176.96 62.288L176.481 61.4101ZM174.74 62.6836L176.26 66.2836L177.181 65.8946L175.661 62.2946L174.74 62.6836ZM176.72 66.5891C176.806 66.5891 176.875 66.5692 176.911 66.5578C176.951 66.5448 176.989 66.5291 177.019 66.516C177.076 66.4902 177.149 66.454 177.224 66.4163L176.777 65.5219C176.736 65.5421 176.703 65.5586 176.675 65.5725C176.646 65.5866 176.626 65.5959 176.612 65.6022C176.597 65.609 176.597 65.6083 176.606 65.6054C176.611 65.6037 176.623 65.6 176.641 65.5967C176.657 65.5934 176.685 65.5891 176.72 65.5891V66.5891ZM177.147 66.447C177.642 66.2949 178.117 66.1642 178.456 66.0372L178.105 65.1009C177.803 65.2139 177.399 65.3233 176.853 65.4912L177.147 66.447ZM178.456 66.0372C178.793 65.911 179.255 65.7012 179.881 65.4272L179.48 64.511C178.826 64.797 178.408 64.9872 178.105 65.1009L178.456 66.0372ZM179.881 65.4272C180.542 65.138 181.078 64.8492 181.52 64.608L181.041 63.7301C180.603 63.9689 180.099 64.2402 179.48 64.511L179.881 65.4272ZM181.538 64.5978C181.97 64.3382 182.474 63.9592 183.003 63.5108L182.357 62.7474C181.847 63.179 181.391 63.5199 181.023 63.7403L181.538 64.5978ZM182.985 63.5254C183.536 63.1019 184.018 62.6236 184.376 62.0864L183.544 61.5317C183.263 61.9545 182.865 62.3562 182.376 62.7328L182.985 63.5254ZM184.365 62.1032C184.724 61.609 184.983 61.0398 185.229 60.3846L184.292 60.0335C184.058 60.6584 183.837 61.1291 183.556 61.515L184.365 62.1032ZM185.225 60.3948C185.49 59.7327 185.62 59.0293 185.62 58.2891H184.62C184.62 58.9088 184.511 59.4855 184.296 60.0234L185.225 60.3948ZM185.62 58.2891V31.4891H184.62V58.2891H185.62ZM185.12 30.9891H179.92V31.9891H185.12V30.9891ZM206.954 31.4891V30.9891H206.454V31.4891H206.954ZM206.314 53.0091L206.769 53.216L206.314 53.0091ZM204.434 55.0091L204.202 54.5662L204.193 54.5704L204.186 54.575L204.434 55.0091ZM197.114 54.2091L197.474 53.8628L197.114 54.2091ZM195.714 31.4891H196.214V30.9891H195.714V31.4891ZM190.474 31.4891V30.9891H189.974V31.4891H190.474ZM193.274 57.3691L193.627 57.0155L193.623 57.0117L193.274 57.3691ZM209.394 57.3691L209.743 57.7264L209.747 57.7226L209.394 57.3691ZM212.194 31.4891H212.694V30.9891H212.194V31.4891ZM206.454 31.4891V49.7691H207.454V31.4891H206.454ZM206.454 49.7691C206.454 50.9864 206.225 51.9946 205.858 52.8022L206.769 53.216C207.202 52.2635 207.454 51.1118 207.454 49.7691H206.454ZM205.858 52.8022C205.504 53.5827 204.941 54.1787 204.202 54.5662L204.666 55.452C205.606 54.9594 206.324 54.1955 206.769 53.216L205.858 52.8022ZM204.186 54.575C203.449 54.996 202.505 55.1891 201.314 55.1891V56.1891C202.602 56.1891 203.738 55.9822 204.682 55.4432L204.186 54.575ZM201.314 55.1891C199.558 55.1891 198.309 54.7327 197.474 53.8628L196.753 54.5553C197.838 55.6855 199.389 56.1891 201.314 56.1891V55.1891ZM197.474 53.8628C196.64 52.9937 196.214 51.6641 196.214 49.7691H195.214C195.214 51.794 195.667 53.4244 196.753 54.5553L197.474 53.8628ZM196.214 49.7691V31.4891H195.214V49.7691H196.214ZM195.714 30.9891H190.474V31.9891H195.714V30.9891ZM189.974 31.4891V49.7691H190.974V31.4891H189.974ZM189.974 49.7691C189.974 53.1086 190.925 55.7704 192.924 57.7264L193.623 57.0117C191.862 55.2877 190.974 52.9095 190.974 49.7691H189.974ZM192.92 57.7226C194.883 59.6857 197.709 60.6291 201.314 60.6291V59.6291C197.878 59.6291 195.344 58.7325 193.627 57.0155L192.92 57.7226ZM201.314 60.6291C204.92 60.6291 207.742 59.6849 209.743 57.7264L209.044 57.0117C207.285 58.7333 204.747 59.6291 201.314 59.6291V60.6291ZM209.747 57.7226C211.699 55.7708 212.694 53.1138 212.694 49.7691H211.694C211.694 52.9043 210.768 55.2873 209.04 57.0155L209.747 57.7226ZM212.694 49.7691V31.4891H211.694V49.7691H212.694ZM212.194 30.9891H206.954V31.9891H212.194V30.9891ZM224.424 31.4891V30.9891H224.074L223.954 31.3185L224.424 31.4891ZM214.264 59.4891L213.794 59.3185L213.551 59.9891H214.264V59.4891ZM219.704 59.4891V59.9891H220.056L220.175 59.6581L219.704 59.4891ZM221.744 53.8091V53.3091H221.393L221.274 53.6401L221.744 53.8091ZM231.224 53.8091L231.694 53.6371L231.574 53.3091H231.224V53.8091ZM233.304 59.4891L232.835 59.661L232.955 59.9891H233.304V59.4891ZM238.704 59.4891V59.9891H239.418L239.174 59.3185L238.704 59.4891ZM228.544 31.4891L229.014 31.3185L228.895 30.9891H228.544V31.4891ZM230.104 49.8891V50.3891H230.804L230.577 49.7272L230.104 49.8891ZM222.784 49.8891L222.312 49.7256L222.082 50.3891H222.784V49.8891ZM226.464 39.2491L226.937 39.0872L226.467 37.7119L225.992 39.0856L226.464 39.2491ZM223.954 31.3185L213.794 59.3185L214.734 59.6596L224.894 31.6596L223.954 31.3185ZM214.264 59.9891H219.704V58.9891H214.264V59.9891ZM220.175 59.6581L222.215 53.9781L221.274 53.6401L219.234 59.3201L220.175 59.6581ZM221.744 54.3091H231.224V53.3091H221.744V54.3091ZM230.755 53.981L232.835 59.661L233.774 59.3171L231.694 53.6371L230.755 53.981ZM233.304 59.9891H238.704V58.9891H233.304V59.9891ZM239.174 59.3185L229.014 31.3185L228.074 31.6596L238.234 59.6596L239.174 59.3185ZM228.544 30.9891H224.424V31.9891H228.544V30.9891ZM230.104 49.3891H222.784V50.3891H230.104V49.3891ZM223.257 50.0525L226.937 39.4125L225.992 39.0856L222.312 49.7256L223.257 50.0525ZM225.991 39.4109L229.631 50.0509L230.577 49.7272L226.937 39.0872L225.991 39.4109ZM258.306 31.4891V30.9891H257.806V31.4891H258.306ZM258.306 49.3291L257.887 49.603L258.806 51.0056V49.3291H258.306ZM246.626 31.4891L247.044 31.2152L246.896 30.9891H246.626V31.4891ZM242.106 31.4891V30.9891H241.606V31.4891H242.106ZM242.106 59.4891H241.606V59.9891H242.106V59.4891ZM247.306 59.4891V59.9891H247.806V59.4891H247.306ZM247.306 41.5691L247.723 41.2941L246.806 39.9006V41.5691H247.306ZM259.106 59.4891L258.688 59.7641L258.836 59.9891H259.106V59.4891ZM263.506 59.4891V59.9891H264.006V59.4891H263.506ZM263.506 31.4891H264.006V30.9891H263.506V31.4891ZM257.806 31.4891V49.3291H258.806V31.4891H257.806ZM258.724 49.0552L247.044 31.2152L246.207 31.7629L257.887 49.603L258.724 49.0552ZM246.626 30.9891H242.106V31.9891H246.626V30.9891ZM241.606 31.4891V59.4891H242.606V31.4891H241.606ZM242.106 59.9891H247.306V58.9891H242.106V59.9891ZM247.806 59.4891V41.5691H246.806V59.4891H247.806ZM246.888 41.8441L258.688 59.7641L259.523 59.2141L247.723 41.2941L246.888 41.8441ZM259.106 59.9891H263.506V58.9891H259.106V59.9891ZM264.006 59.4891V31.4891H263.006V59.4891H264.006ZM263.506 30.9891H258.306V31.9891H263.506V30.9891Z" fill="#962952"/>
<path d="M16.5462 15.6997C16.3908 17.1393 15.1869 20.4317 14.6044 21.898C24.0805 16.1396 36.7411 21.0982 41.4015 23.4975C36.5469 12.3007 28.1971 10.0865 23.3426 9.90137C18.0996 9.70145 16.7404 13.9002 16.5462 15.6997Z" fill="url(#paint0_linear_9_112)"/>
<path d="M37.0791 5.87171C36.1311 6.94177 33.2771 8.87469 31.9685 9.7074C42.9185 10.7939 50.3208 22.4775 52.7177 27.2425C55.1895 15.2452 49.7043 8.39374 45.8856 5.30174C41.7614 1.96236 38.264 4.53413 37.0791 5.87171Z" fill="url(#paint1_linear_9_112)"/>
<path d="M59.3207 10.287C57.9481 10.6041 54.5329 10.503 52.9968 10.4128C61.3679 17.7659 60.9331 31.7062 60.2458 37.0244C68.9491 28.6551 68.2661 19.8048 66.8567 15.0179C65.3346 9.8481 61.0365 9.89062 59.3207 10.287Z" fill="url(#paint2_linear_9_112)"/>
<path d="M75.1499 27.4045C73.8856 26.7695 71.2797 24.4942 70.1348 23.436C72.2124 34.5619 63.4171 45.1694 59.6546 48.8808C71.5282 47.9415 76.363 40.5904 78.1658 35.9456C80.1129 30.9292 76.7303 28.1984 75.1499 27.4045Z" fill="url(#paint3_linear_9_112)"/>
<path d="M77.612 49.9759C76.9158 48.7173 76.0103 45.325 75.6445 43.7862C71.2656 54.1802 58.1924 57.8316 53.0525 58.7112C63.3718 64.8312 71.3908 61.5688 75.4238 58.7803C79.7795 55.7687 78.4822 51.5492 77.612 49.9759Z" fill="url(#paint4_linear_9_112)"/>
<path d="M66.2879 70.0269C66.451 68.5882 67.6727 65.3028 68.2632 63.8399C58.7561 69.5438 46.1225 64.5126 41.4752 62.0866C46.269 73.3111 54.6067 75.5732 59.4602 75.7862C64.702 76.0162 66.084 71.8252 66.2879 70.0269Z" fill="url(#paint5_linear_9_112)"/>
<path d="M45.9822 80.1267C46.9288 79.0552 49.7806 77.1177 51.0882 76.2829C40.1338 75.2161 32.712 63.5485 30.3074 58.7889C27.8531 70.7876 33.35 77.6276 37.1743 80.7121C41.3046 84.0433 44.799 81.466 45.9822 80.1267Z" fill="url(#paint6_linear_9_112)"/>
<path d="M23.9893 75.5737C25.3618 75.2562 28.7771 75.3562 30.3131 75.4459C21.9398 68.0955 22.3704 54.155 23.0561 48.8366C14.3553 57.2088 15.041 66.0588 16.4518 70.8452C17.9755 76.0145 22.2737 75.9706 23.9893 75.5737Z" fill="url(#paint7_linear_9_112)"/>
<path d="M8.52709 58.6302C9.80904 59.2266 12.479 61.4217 13.6538 62.4447C11.2583 51.3867 19.7458 40.5166 23.4003 36.6925C11.5588 37.9921 6.93679 45.4869 5.26781 50.1845C3.4653 55.2578 6.92466 57.8847 8.52709 58.6302Z" fill="url(#paint8_linear_9_112)"/>
<path d="M5.3849 36.0698C6.09188 37.322 7.02668 40.7058 7.40571 42.2412C11.6947 31.8076 24.7359 28.0368 29.868 27.1102C19.4963 21.0848 11.5058 24.4205 7.49698 27.2457C3.1675 30.297 4.50117 34.5045 5.3849 36.0698Z" fill="url(#paint9_linear_9_112)"/>
<path d="M355.274 9.2L352.488 14.478L349.716 9.2H348.092L347.742 19H349.548L349.772 13.064L351.872 17.012H353.132L355.218 13.064L355.428 19H357.248L356.898 9.2H355.274ZM359.084 9.2V19H360.918V9.2H359.084ZM368.459 9.2V15.444L364.371 9.2H362.789V19H364.609V12.728L368.739 19H370.279V9.2H368.459ZM372.161 9.2V19H373.995V9.2H372.161ZM375.488 18.538C376.804 19 377.938 19.224 378.89 19.224C379.114 19.224 379.296 19.224 379.45 19.21C379.604 19.21 379.8 19.196 380.024 19.168C380.248 19.14 380.458 19.098 380.626 19.042C380.794 18.986 380.976 18.916 381.172 18.832C381.368 18.748 381.522 18.622 381.662 18.468C381.802 18.328 381.928 18.146 382.04 17.95C382.152 17.754 382.25 17.516 382.306 17.236C382.362 16.956 382.404 16.634 382.404 16.284C382.404 16.004 382.362 15.752 382.292 15.5C382.222 15.262 382.138 15.052 382.054 14.87C381.956 14.702 381.816 14.534 381.634 14.366C381.438 14.198 381.284 14.072 381.144 13.974C381.004 13.89 380.794 13.778 380.528 13.666C380.262 13.554 380.052 13.456 379.912 13.4C379.758 13.344 379.534 13.274 379.24 13.162C379.002 13.092 378.82 13.036 378.694 12.98C378.568 12.938 378.414 12.868 378.246 12.784C378.078 12.7 377.938 12.602 377.854 12.518C377.77 12.434 377.686 12.336 377.616 12.196C377.546 12.056 377.518 11.902 377.518 11.734C377.518 10.936 378.05 10.53 379.128 10.53C379.772 10.53 380.5 10.782 381.284 11.258L382.138 9.914C381.662 9.578 381.144 9.34 380.612 9.2C380.066 9.06 379.576 8.99 379.128 8.99C378.484 8.99 377.924 9.074 377.462 9.214C376.986 9.368 376.636 9.578 376.384 9.844C376.132 10.124 375.964 10.404 375.852 10.712C375.74 11.02 375.698 11.37 375.698 11.734C375.698 12.084 375.754 12.406 375.88 12.686C376.006 12.98 376.16 13.218 376.342 13.4C376.51 13.582 376.748 13.764 377.042 13.932C377.336 14.1 377.602 14.24 377.826 14.324C378.05 14.408 378.344 14.506 378.694 14.618C378.974 14.73 379.212 14.814 379.394 14.898C379.576 14.982 379.772 15.08 379.982 15.206C380.178 15.346 380.332 15.5 380.43 15.682C380.528 15.864 380.584 16.06 380.584 16.284C380.584 16.592 380.528 16.83 380.444 17.026C380.346 17.222 380.206 17.376 380.038 17.46C379.856 17.544 379.674 17.614 379.506 17.642C379.338 17.67 379.128 17.684 378.89 17.684C378.484 17.684 378.078 17.642 377.658 17.558C377.238 17.474 376.664 17.306 375.936 17.068L375.488 18.538ZM383.351 9.2V10.74H386.067V19H387.887V10.74H390.575V9.2H383.351ZM392.022 9.2V19H398.644V17.46H393.856V14.716H398.098V13.176H393.856V10.74H398.518V9.2H392.022ZM400.188 9.2V19H402.022V15.416H403.646L405.886 19H407.93L405.494 15.164C406.166 14.996 406.67 14.646 407.006 14.142C407.342 13.638 407.524 13.036 407.524 12.308C407.524 11.384 407.258 10.628 406.726 10.054C406.194 9.494 405.396 9.2 404.346 9.2H400.188ZM402.022 13.876V10.74H404.346C404.794 10.74 405.144 10.88 405.368 11.16C405.592 11.44 405.704 11.818 405.704 12.308C405.704 12.812 405.592 13.19 405.368 13.47C405.144 13.75 404.794 13.876 404.346 13.876H402.022ZM409.529 9.2V19H411.363V9.2H409.529ZM413.024 15.794C413.024 16.466 413.192 17.068 413.556 17.6C413.92 18.132 414.382 18.524 414.956 18.804C415.53 19.084 416.16 19.21 416.846 19.21C417.518 19.21 418.148 19.084 418.736 18.804C419.31 18.524 419.772 18.132 420.136 17.6C420.5 17.068 420.682 16.466 420.682 15.794V12.35C420.682 11.846 420.57 11.384 420.36 10.95C420.15 10.53 419.87 10.166 419.52 9.886C419.156 9.606 418.75 9.382 418.288 9.228C417.826 9.074 417.35 8.99 416.846 8.99C416.174 8.99 415.544 9.13 414.97 9.396C414.396 9.662 413.934 10.054 413.57 10.572C413.206 11.09 413.024 11.678 413.024 12.35V15.794ZM418.862 15.794C418.862 16.382 418.666 16.83 418.274 17.166C417.882 17.502 417.406 17.67 416.846 17.67C416.286 17.67 415.81 17.502 415.418 17.166C415.026 16.83 414.844 16.382 414.844 15.794V12.35C414.844 11.79 415.026 11.342 415.418 11.02C415.796 10.698 416.272 10.53 416.846 10.53C417.406 10.53 417.882 10.698 418.274 11.02C418.666 11.342 418.862 11.79 418.862 12.35V15.794ZM426.683 9.2V19H430.295C430.967 19 431.597 18.874 432.185 18.594C432.759 18.314 433.221 17.922 433.585 17.39C433.935 16.872 434.117 16.27 434.117 15.598V12.56C434.117 11.888 433.935 11.3 433.571 10.782C433.207 10.264 432.745 9.872 432.171 9.606C431.583 9.34 430.967 9.2 430.295 9.2H426.683ZM432.297 15.598C432.297 16.186 432.101 16.634 431.709 16.97C431.317 17.306 430.855 17.46 430.295 17.46H428.503V10.74H430.295C430.659 10.74 430.981 10.81 431.289 10.95C431.583 11.09 431.821 11.286 432.017 11.566C432.199 11.846 432.297 12.182 432.297 12.56V15.598ZM435.792 9.2V19H442.414V17.46H437.626V14.716H441.868V13.176H437.626V10.74H442.288V9.2H435.792Z" fill="#90234C"/>
<path d="M348.6 25.6V48H354.2V40.832H358.36C360.888 40.832 362.808 40.128 364.12 38.72C365.4 37.312 366.072 35.488 366.072 33.248C366.072 31.776 365.784 30.464 365.272 29.344C364.728 28.224 363.864 27.328 362.68 26.624C361.496 25.952 360.056 25.6 358.36 25.6H348.6ZM354.2 36.16V30.272H358.36C359.768 30.272 360.472 31.264 360.472 33.248C360.472 34.176 360.28 34.88 359.928 35.392C359.576 35.904 359.064 36.16 358.36 36.16H354.2ZM367.773 25.6V48H373.373V40.32H375.549L380.349 48H386.589L381.181 39.488C382.493 38.912 383.485 38.08 384.189 36.928C384.893 35.776 385.245 34.464 385.245 32.96C385.245 30.784 384.573 29.024 383.293 27.648C381.981 26.304 380.061 25.6 377.533 25.6H367.773ZM373.373 35.648V30.272H377.533C378.941 30.272 379.645 31.168 379.645 32.96C379.645 34.752 378.941 35.648 377.533 35.648H373.373ZM387.46 40.448C387.46 42.016 387.876 43.424 388.74 44.64C389.572 45.888 390.692 46.848 392.068 47.488C393.412 48.128 394.916 48.448 396.516 48.448C398.116 48.448 399.588 48.128 400.964 47.488C402.34 46.848 403.46 45.888 404.324 44.64C405.156 43.424 405.604 42.016 405.604 40.448V33.056C405.604 31.488 405.156 30.08 404.324 28.864C403.46 27.648 402.34 26.72 400.964 26.08C399.588 25.44 398.116 25.12 396.516 25.12C394.916 25.12 393.444 25.44 392.1 26.08C390.724 26.72 389.604 27.68 388.74 28.896C387.876 30.112 387.46 31.52 387.46 33.056V40.448ZM400.036 40.448C400.036 41.504 399.684 42.336 399.012 42.912C398.308 43.488 397.476 43.776 396.516 43.776C396.036 43.776 395.588 43.712 395.172 43.584C394.724 43.456 394.372 43.232 394.052 42.944C393.732 42.688 393.476 42.336 393.284 41.888C393.092 41.472 393.028 40.992 393.028 40.448V33.056C393.028 32.032 393.348 31.264 394.02 30.688C394.66 30.112 395.492 29.824 396.516 29.824C397.508 29.824 398.34 30.112 399.012 30.688C399.684 31.264 400.036 32.032 400.036 33.056V40.448ZM407.43 25.6V48H416.038C417.638 48 419.11 47.68 420.486 47.04C421.83 46.4 422.95 45.44 423.814 44.192C424.646 42.976 425.094 41.568 425.094 40.032V33.504C425.094 31.968 424.646 30.56 423.782 29.344C422.918 28.128 421.798 27.2 420.454 26.56C419.078 25.92 417.606 25.6 416.038 25.6H407.43ZM419.526 40.032C419.526 41.056 419.174 41.888 418.502 42.464C417.83 43.04 416.998 43.328 416.038 43.328H412.998V30.272H416.038C417.03 30.272 417.862 30.56 418.534 31.136C419.174 31.712 419.526 32.48 419.526 33.504V40.032ZM439.299 25.6V40.032C439.299 42.56 438.147 43.808 435.875 43.808C433.603 43.808 432.483 42.56 432.483 40.032V25.6H426.883V40.032C426.883 42.656 427.651 44.704 429.219 46.208C430.755 47.744 432.995 48.48 435.875 48.48C438.755 48.48 440.995 47.744 442.563 46.208C444.099 44.704 444.899 42.656 444.899 40.032V25.6H439.299ZM461.451 41.824C459.147 43.136 457.259 43.776 455.723 43.776C455.339 43.776 454.955 43.744 454.635 43.648C454.315 43.584 454.027 43.424 453.803 43.232C453.547 43.04 453.355 42.848 453.163 42.592C452.971 42.336 452.843 42.048 452.715 41.696C452.587 41.344 452.491 40.992 452.427 40.64C452.363 40.32 452.299 39.904 452.267 39.456C452.203 39.008 452.171 38.56 452.171 38.176C452.171 37.792 452.171 37.312 452.171 36.768C452.171 35.936 452.171 35.2 452.235 34.592C452.267 34.016 452.363 33.376 452.491 32.736C452.619 32.096 452.811 31.552 453.067 31.168C453.323 30.784 453.675 30.464 454.123 30.208C454.571 29.952 455.083 29.824 455.723 29.824C457.259 29.824 459.147 30.496 461.451 31.776L463.211 27.2C462.155 26.592 461.003 26.112 459.723 25.76C458.443 25.44 457.547 25.248 457.035 25.184C456.523 25.152 456.107 25.12 455.723 25.12C454.571 25.12 453.515 25.248 452.619 25.472C451.691 25.728 450.923 26.016 450.283 26.4C449.643 26.784 449.067 27.264 448.619 27.84C448.171 28.448 447.787 29.056 447.531 29.696C447.275 30.336 447.051 31.072 446.923 31.904C446.763 32.736 446.667 33.536 446.635 34.272C446.571 35.008 446.571 35.84 446.571 36.8C446.571 37.76 446.571 38.592 446.635 39.328C446.667 40.064 446.763 40.864 446.923 41.696C447.051 42.528 447.275 43.264 447.531 43.904C447.787 44.544 448.171 45.152 448.619 45.728C449.067 46.336 449.643 46.816 450.283 47.2C450.923 47.584 451.691 47.872 452.619 48.096C453.515 48.352 454.571 48.448 455.723 48.448C455.851 48.448 455.979 48.448 456.139 48.448C456.299 48.448 456.587 48.416 456.971 48.384C457.355 48.352 457.803 48.288 458.251 48.192C458.699 48.128 459.179 48 459.723 47.872C460.267 47.744 460.843 47.52 461.451 47.264C462.059 47.008 462.635 46.72 463.211 46.4L461.451 41.824ZM479.03 41.824C476.726 43.136 474.838 43.776 473.302 43.776C472.918 43.776 472.534 43.744 472.214 43.648C471.894 43.584 471.606 43.424 471.382 43.232C471.126 43.04 470.934 42.848 470.742 42.592C470.55 42.336 470.422 42.048 470.294 41.696C470.166 41.344 470.07 40.992 470.006 40.64C469.942 40.32 469.878 39.904 469.846 39.456C469.782 39.008 469.75 38.56 469.75 38.176C469.75 37.792 469.75 37.312 469.75 36.768C469.75 35.936 469.75 35.2 469.814 34.592C469.846 34.016 469.942 33.376 470.07 32.736C470.198 32.096 470.39 31.552 470.646 31.168C470.902 30.784 471.254 30.464 471.702 30.208C472.15 29.952 472.662 29.824 473.302 29.824C474.838 29.824 476.726 30.496 479.03 31.776L480.79 27.2C479.734 26.592 478.582 26.112 477.302 25.76C476.022 25.44 475.126 25.248 474.614 25.184C474.102 25.152 473.686 25.12 473.302 25.12C472.15 25.12 471.094 25.248 470.198 25.472C469.27 25.728 468.502 26.016 467.862 26.4C467.222 26.784 466.646 27.264 466.198 27.84C465.75 28.448 465.366 29.056 465.11 29.696C464.854 30.336 464.63 31.072 464.502 31.904C464.342 32.736 464.246 33.536 464.214 34.272C464.15 35.008 464.15 35.84 464.15 36.8C464.15 37.76 464.15 38.592 464.214 39.328C464.246 40.064 464.342 40.864 464.502 41.696C464.63 42.528 464.854 43.264 465.11 43.904C465.366 44.544 465.75 45.152 466.198 45.728C466.646 46.336 467.222 46.816 467.862 47.2C468.502 47.584 469.27 47.872 470.198 48.096C471.094 48.352 472.15 48.448 473.302 48.448C473.43 48.448 473.558 48.448 473.718 48.448C473.878 48.448 474.166 48.416 474.55 48.384C474.934 48.352 475.382 48.288 475.83 48.192C476.278 48.128 476.758 48 477.302 47.872C477.846 47.744 478.422 47.52 479.03 47.264C479.638 47.008 480.214 46.72 480.79 46.4L479.03 41.824ZM482.433 25.6V48H488.033V25.6H482.433ZM498.254 17.856L494.798 22.24H498.734L503.086 17.856H498.254ZM489.87 40.448C489.87 42.016 490.286 43.424 491.15 44.64C491.982 45.888 493.102 46.848 494.478 47.488C495.822 48.128 497.326 48.448 498.926 48.448C500.526 48.448 501.998 48.128 503.374 47.488C504.75 46.848 505.87 45.888 506.734 44.64C507.566 43.424 508.014 42.016 508.014 40.448V33.056C508.014 31.488 507.566 30.08 506.734 28.864C505.87 27.648 504.75 26.72 503.374 26.08C501.998 25.44 500.526 25.12 498.926 25.12C497.326 25.12 495.854 25.44 494.51 26.08C493.134 26.72 492.014 27.68 491.15 28.896C490.286 30.112 489.87 31.52 489.87 33.056V40.448ZM502.446 40.448C502.446 41.504 502.094 42.336 501.422 42.912C500.718 43.488 499.886 43.776 498.926 43.776C498.446 43.776 497.998 43.712 497.582 43.584C497.134 43.456 496.782 43.232 496.462 42.944C496.142 42.688 495.886 42.336 495.694 41.888C495.502 41.472 495.438 40.992 495.438 40.448V33.056C495.438 32.032 495.758 31.264 496.43 30.688C497.07 30.112 497.902 29.824 498.926 29.824C499.918 29.824 500.75 30.112 501.422 30.688C502.094 31.264 502.446 32.032 502.446 33.056V40.448ZM521.84 25.6V36.992L514.352 25.6H509.616V48H515.184V36.512L522.768 48H527.376V25.6H521.84Z" fill="#90234C"/>
<path d="M355.288 55.8L352.856 59.864L350.408 55.8H347.256L351.448 62.744V67H354.248V62.728L358.44 55.8H355.288ZM363.004 55.8V67H367.308C368.108 67 368.844 66.84 369.532 66.52C370.204 66.2 370.764 65.72 371.196 65.096C371.612 64.488 371.836 63.784 371.836 63.016V59.752C371.836 58.984 371.612 58.28 371.18 57.672C370.748 57.064 370.188 56.6 369.516 56.28C368.828 55.96 368.092 55.8 367.308 55.8H363.004ZM369.052 63.016C369.052 63.528 368.876 63.944 368.54 64.232C368.204 64.52 367.788 64.664 367.308 64.664H365.788V58.136H367.308C367.804 58.136 368.22 58.28 368.556 58.568C368.876 58.856 369.052 59.24 369.052 59.752V63.016ZM372.427 55.8V67H380.379V64.664H375.227V62.408H379.771V60.072H375.227V58.136H380.235V55.8H372.427ZM380.463 66.376C382.143 66.952 383.519 67.24 384.575 67.24C384.863 67.24 385.119 67.24 385.327 67.224C385.535 67.224 385.791 67.192 386.111 67.144C386.431 67.096 386.687 67.032 386.911 66.936C387.135 66.84 387.359 66.712 387.615 66.536C387.871 66.376 388.063 66.168 388.223 65.928C388.383 65.688 388.511 65.384 388.607 65C388.703 64.632 388.767 64.216 388.767 63.752C388.767 63.496 388.735 63.24 388.687 63C388.623 62.776 388.559 62.568 388.495 62.376C388.431 62.2 388.319 62.024 388.191 61.864C388.063 61.704 387.935 61.56 387.823 61.432C387.711 61.32 387.551 61.192 387.343 61.064C387.135 60.936 386.959 60.84 386.831 60.776C386.703 60.712 386.511 60.616 386.255 60.52C385.999 60.424 385.807 60.344 385.679 60.296C385.551 60.248 385.343 60.168 385.071 60.072C384.799 59.992 384.591 59.928 384.447 59.864C384.303 59.8 384.143 59.72 383.983 59.624C383.807 59.528 383.679 59.432 383.615 59.304C383.535 59.176 383.503 59.032 383.503 58.872C383.503 58.232 383.935 57.912 384.831 57.912C385.407 57.912 386.207 58.232 387.215 58.872L388.527 56.84C387.887 56.36 387.247 56.04 386.591 55.848C385.919 55.656 385.343 55.56 384.831 55.56C384.063 55.56 383.391 55.656 382.831 55.848C382.271 56.04 381.839 56.296 381.551 56.616C381.263 56.936 381.039 57.288 380.911 57.656C380.783 58.024 380.719 58.424 380.719 58.872C380.719 59.272 380.783 59.64 380.943 59.976C381.087 60.328 381.263 60.6 381.487 60.824C381.695 61.048 381.967 61.256 382.319 61.448C382.655 61.656 382.959 61.816 383.231 61.928C383.503 62.04 383.839 62.152 384.223 62.28C384.767 62.472 385.199 62.68 385.519 62.904C385.823 63.128 385.983 63.4 385.983 63.752C385.983 63.976 385.935 64.168 385.871 64.328C385.791 64.488 385.679 64.616 385.551 64.696C385.407 64.776 385.263 64.824 385.103 64.856C384.943 64.888 384.767 64.904 384.575 64.904C384.159 64.904 383.727 64.856 383.247 64.744C382.767 64.648 382.079 64.44 381.151 64.136L380.463 66.376ZM392.824 55.8L388.728 67H391.64L392.36 64.984H395.4L396.152 67H399.048L394.952 55.8H392.824ZM394.84 62.92H392.904L393.88 59.992L394.84 62.92ZM399.444 55.8V67H402.244V63.16H403.332L405.732 67H408.852L406.148 62.744C406.804 62.456 407.3 62.04 407.652 61.464C408.004 60.888 408.18 60.232 408.18 59.48C408.18 58.392 407.844 57.512 407.204 56.824C406.548 56.152 405.588 55.8 404.324 55.8H399.444ZM402.244 60.824V58.136H404.324C405.028 58.136 405.38 58.584 405.38 59.48C405.38 60.376 405.028 60.824 404.324 60.824H402.244ZM409.32 55.8V67H412.12V63.16H413.208L415.608 67H418.728L416.024 62.744C416.68 62.456 417.176 62.04 417.528 61.464C417.88 60.888 418.056 60.232 418.056 59.48C418.056 58.392 417.72 57.512 417.08 56.824C416.424 56.152 415.464 55.8 414.2 55.8H409.32ZM412.12 60.824V58.136H414.2C414.904 58.136 415.256 58.584 415.256 59.48C415.256 60.376 414.904 60.824 414.2 60.824H412.12ZM418.844 63.224C418.844 64.008 419.052 64.712 419.484 65.32C419.9 65.944 420.46 66.424 421.148 66.744C421.82 67.064 422.572 67.224 423.372 67.224C424.172 67.224 424.908 67.064 425.596 66.744C426.284 66.424 426.844 65.944 427.276 65.32C427.692 64.712 427.916 64.008 427.916 63.224V59.528C427.916 58.744 427.692 58.04 427.276 57.432C426.844 56.824 426.284 56.36 425.596 56.04C424.908 55.72 424.172 55.56 423.372 55.56C422.572 55.56 421.836 55.72 421.164 56.04C420.476 56.36 419.916 56.84 419.484 57.448C419.052 58.056 418.844 58.76 418.844 59.528V63.224ZM425.132 63.224C425.132 63.752 424.956 64.168 424.62 64.456C424.268 64.744 423.852 64.888 423.372 64.888C423.132 64.888 422.908 64.856 422.7 64.792C422.476 64.728 422.3 64.616 422.14 64.472C421.98 64.344 421.852 64.168 421.756 63.944C421.66 63.736 421.628 63.496 421.628 63.224V59.528C421.628 59.016 421.788 58.632 422.124 58.344C422.444 58.056 422.86 57.912 423.372 57.912C423.868 57.912 424.284 58.056 424.62 58.344C424.956 58.632 425.132 59.016 425.132 59.528V63.224ZM428.509 55.8V67H436.045V64.664H431.309V55.8H428.509ZM436.447 55.8V67H443.983V64.664H439.247V55.8H436.447ZM443.924 63.224C443.924 64.008 444.132 64.712 444.564 65.32C444.98 65.944 445.54 66.424 446.228 66.744C446.9 67.064 447.652 67.224 448.452 67.224C449.252 67.224 449.988 67.064 450.676 66.744C451.364 66.424 451.924 65.944 452.356 65.32C452.772 64.712 452.996 64.008 452.996 63.224V59.528C452.996 58.744 452.772 58.04 452.356 57.432C451.924 56.824 451.364 56.36 450.676 56.04C449.988 55.72 449.252 55.56 448.452 55.56C447.652 55.56 446.916 55.72 446.244 56.04C445.556 56.36 444.996 56.84 444.564 57.448C444.132 58.056 443.924 58.76 443.924 59.528V63.224ZM450.212 63.224C450.212 63.752 450.036 64.168 449.7 64.456C449.348 64.744 448.932 64.888 448.452 64.888C448.212 64.888 447.988 64.856 447.78 64.792C447.556 64.728 447.38 64.616 447.22 64.472C447.06 64.344 446.932 64.168 446.836 63.944C446.74 63.736 446.708 63.496 446.708 63.224V59.528C446.708 59.016 446.868 58.632 447.204 58.344C447.524 58.056 447.94 57.912 448.452 57.912C448.948 57.912 449.364 58.056 449.7 58.344C450.036 58.632 450.212 59.016 450.212 59.528V63.224ZM457.746 55.8V67H465.698V64.664H460.546V62.408H465.09V60.072H460.546V58.136H465.554V55.8H457.746ZM473.334 63.912C472.182 64.568 471.238 64.888 470.47 64.888C470.278 64.888 470.086 64.872 469.926 64.824C469.766 64.792 469.622 64.712 469.51 64.616C469.382 64.52 469.286 64.424 469.19 64.296C469.094 64.168 469.03 64.024 468.966 63.848C468.902 63.672 468.854 63.496 468.822 63.32C468.79 63.16 468.758 62.952 468.742 62.728C468.71 62.504 468.694 62.28 468.694 62.088C468.694 61.896 468.694 61.656 468.694 61.384C468.694 60.968 468.694 60.6 468.726 60.296C468.742 60.008 468.79 59.688 468.854 59.368C468.918 59.048 469.014 58.776 469.142 58.584C469.27 58.392 469.446 58.232 469.67 58.104C469.894 57.976 470.15 57.912 470.47 57.912C471.238 57.912 472.182 58.248 473.334 58.888L474.214 56.6C473.686 56.296 473.11 56.056 472.47 55.88C471.83 55.72 471.382 55.624 471.126 55.592C470.87 55.576 470.662 55.56 470.47 55.56C469.894 55.56 469.366 55.624 468.918 55.736C468.454 55.864 468.07 56.008 467.75 56.2C467.43 56.392 467.142 56.632 466.918 56.92C466.694 57.224 466.502 57.528 466.374 57.848C466.246 58.168 466.134 58.536 466.07 58.952C465.99 59.368 465.942 59.768 465.926 60.136C465.894 60.504 465.894 60.92 465.894 61.4C465.894 61.88 465.894 62.296 465.926 62.664C465.942 63.032 465.99 63.432 466.07 63.848C466.134 64.264 466.246 64.632 466.374 64.952C466.502 65.272 466.694 65.576 466.918 65.864C467.142 66.168 467.43 66.408 467.75 66.6C468.07 66.792 468.454 66.936 468.918 67.048C469.366 67.176 469.894 67.224 470.47 67.224C470.534 67.224 470.598 67.224 470.678 67.224C470.758 67.224 470.902 67.208 471.094 67.192C471.286 67.176 471.51 67.144 471.734 67.096C471.958 67.064 472.198 67 472.47 66.936C472.742 66.872 473.03 66.76 473.334 66.632C473.638 66.504 473.926 66.36 474.214 66.2L473.334 63.912ZM474.364 63.224C474.364 64.008 474.572 64.712 475.004 65.32C475.42 65.944 475.98 66.424 476.668 66.744C477.34 67.064 478.092 67.224 478.892 67.224C479.692 67.224 480.428 67.064 481.116 66.744C481.804 66.424 482.364 65.944 482.796 65.32C483.212 64.712 483.436 64.008 483.436 63.224V59.528C483.436 58.744 483.212 58.04 482.796 57.432C482.364 56.824 481.804 56.36 481.116 56.04C480.428 55.72 479.692 55.56 478.892 55.56C478.092 55.56 477.356 55.72 476.684 56.04C475.996 56.36 475.436 56.84 475.004 57.448C474.572 58.056 474.364 58.76 474.364 59.528V63.224ZM480.652 63.224C480.652 63.752 480.476 64.168 480.14 64.456C479.788 64.744 479.372 64.888 478.892 64.888C478.652 64.888 478.428 64.856 478.22 64.792C477.996 64.728 477.82 64.616 477.66 64.472C477.5 64.344 477.372 64.168 477.276 63.944C477.18 63.736 477.148 63.496 477.148 63.224V59.528C477.148 59.016 477.308 58.632 477.644 58.344C477.964 58.056 478.38 57.912 478.892 57.912C479.388 57.912 479.804 58.056 480.14 58.344C480.476 58.632 480.652 59.016 480.652 59.528V63.224ZM490.029 55.8V61.496L486.285 55.8H483.917V67H486.701V61.256L490.493 67H492.797V55.8H490.029ZM497.479 51.928L495.751 54.12H497.719L499.895 51.928H497.479ZM493.287 63.224C493.287 64.008 493.495 64.712 493.927 65.32C494.343 65.944 494.903 66.424 495.591 66.744C496.263 67.064 497.015 67.224 497.815 67.224C498.615 67.224 499.351 67.064 500.039 66.744C500.727 66.424 501.287 65.944 501.719 65.32C502.135 64.712 502.359 64.008 502.359 63.224V59.528C502.359 58.744 502.135 58.04 501.719 57.432C501.287 56.824 500.727 56.36 500.039 56.04C499.351 55.72 498.615 55.56 497.815 55.56C497.015 55.56 496.279 55.72 495.607 56.04C494.919 56.36 494.359 56.84 493.927 57.448C493.495 58.056 493.287 58.76 493.287 59.528V63.224ZM499.575 63.224C499.575 63.752 499.399 64.168 499.063 64.456C498.711 64.744 498.295 64.888 497.815 64.888C497.575 64.888 497.351 64.856 497.143 64.792C496.919 64.728 496.743 64.616 496.583 64.472C496.423 64.344 496.295 64.168 496.199 63.944C496.103 63.736 496.071 63.496 496.071 63.224V59.528C496.071 59.016 496.231 58.632 496.567 58.344C496.887 58.056 497.303 57.912 497.815 57.912C498.311 57.912 498.727 58.056 499.063 58.344C499.399 58.632 499.575 59.016 499.575 59.528V63.224ZM511 55.8L508.28 60.952L505.592 55.8H503.16L502.76 67H505.528L505.72 61.784L507.368 64.872H509.24L510.856 61.8L511.048 67H513.832L513.416 55.8H511ZM514.609 55.8V67H517.409V55.8H514.609ZM525.447 63.912C524.295 64.568 523.351 64.888 522.583 64.888C522.391 64.888 522.199 64.872 522.039 64.824C521.879 64.792 521.735 64.712 521.623 64.616C521.495 64.52 521.399 64.424 521.303 64.296C521.207 64.168 521.143 64.024 521.079 63.848C521.015 63.672 520.967 63.496 520.935 63.32C520.903 63.16 520.871 62.952 520.855 62.728C520.823 62.504 520.807 62.28 520.807 62.088C520.807 61.896 520.807 61.656 520.807 61.384C520.807 60.968 520.807 60.6 520.839 60.296C520.855 60.008 520.903 59.688 520.967 59.368C521.031 59.048 521.127 58.776 521.255 58.584C521.383 58.392 521.559 58.232 521.783 58.104C522.007 57.976 522.263 57.912 522.583 57.912C523.351 57.912 524.295 58.248 525.447 58.888L526.327 56.6C525.799 56.296 525.223 56.056 524.583 55.88C523.943 55.72 523.495 55.624 523.239 55.592C522.983 55.576 522.775 55.56 522.583 55.56C522.007 55.56 521.479 55.624 521.031 55.736C520.567 55.864 520.183 56.008 519.863 56.2C519.543 56.392 519.255 56.632 519.031 56.92C518.807 57.224 518.615 57.528 518.487 57.848C518.359 58.168 518.247 58.536 518.183 58.952C518.103 59.368 518.055 59.768 518.039 60.136C518.007 60.504 518.007 60.92 518.007 61.4C518.007 61.88 518.007 62.296 518.039 62.664C518.055 63.032 518.103 63.432 518.183 63.848C518.247 64.264 518.359 64.632 518.487 64.952C518.615 65.272 518.807 65.576 519.031 65.864C519.255 66.168 519.543 66.408 519.863 66.6C520.183 66.792 520.567 66.936 521.031 67.048C521.479 67.176 522.007 67.224 522.583 67.224C522.647 67.224 522.711 67.224 522.791 67.224C522.871 67.224 523.015 67.208 523.207 67.192C523.399 67.176 523.623 67.144 523.847 67.096C524.071 67.064 524.311 67 524.583 66.936C524.855 66.872 525.143 66.76 525.447 66.632C525.751 66.504 526.039 66.36 526.327 66.2L525.447 63.912ZM526.477 63.224C526.477 64.008 526.685 64.712 527.117 65.32C527.533 65.944 528.093 66.424 528.781 66.744C529.453 67.064 530.205 67.224 531.005 67.224C531.805 67.224 532.541 67.064 533.229 66.744C533.917 66.424 534.477 65.944 534.909 65.32C535.325 64.712 535.549 64.008 535.549 63.224V59.528C535.549 58.744 535.325 58.04 534.909 57.432C534.477 56.824 533.917 56.36 533.229 56.04C532.541 55.72 531.805 55.56 531.005 55.56C530.205 55.56 529.469 55.72 528.797 56.04C528.109 56.36 527.549 56.84 527.117 57.448C526.685 58.056 526.477 58.76 526.477 59.528V63.224ZM532.765 63.224C532.765 63.752 532.589 64.168 532.253 64.456C531.901 64.744 531.485 64.888 531.005 64.888C530.765 64.888 530.541 64.856 530.333 64.792C530.109 64.728 529.933 64.616 529.773 64.472C529.613 64.344 529.485 64.168 529.389 63.944C529.293 63.736 529.261 63.496 529.261 63.224V59.528C529.261 59.016 529.421 58.632 529.757 58.344C530.077 58.056 530.493 57.912 531.005 57.912C531.501 57.912 531.917 58.056 532.253 58.344C532.589 58.632 532.765 59.016 532.765 59.528V63.224Z" fill="#90234C"/>
<path d="M322.99 7.8139V70.3248" stroke="#962952" stroke-linecap="round"/>
<defs>
<linearGradient id="paint0_linear_9_112" x1="14.4508" y1="15.1957" x2="39.5559" y2="20.1098" gradientUnits="userSpaceOnUse">
<stop stop-color="#F39400"/>
<stop offset="1" stop-color="#E33311"/>
</linearGradient>
<linearGradient id="paint1_linear_9_112" x1="38.9181" y1="5.59983" x2="52.0272" y2="22.8283" gradientUnits="userSpaceOnUse">
<stop stop-color="#EF9C00"/>
<stop offset="1" stop-color="#E2500C"/>
</linearGradient>
<linearGradient id="paint2_linear_9_112" x1="62.2195" y1="7.79781" x2="60.9844" y2="37.1866" gradientUnits="userSpaceOnUse">
<stop stop-color="#B15306"/>
<stop offset="1" stop-color="#AC250B"/>
</linearGradient>
<linearGradient id="paint3_linear_9_112" x1="79.1135" y1="27.7921" x2="60.4872" y2="47.2432" gradientUnits="userSpaceOnUse">
<stop stop-color="#791703"/>
<stop offset="1" stop-color="#961708"/>
</linearGradient>
<linearGradient id="paint4_linear_9_112" x1="79.3077" y1="49.1861" x2="54.8499" y2="58.4973" gradientUnits="userSpaceOnUse">
<stop stop-color="#6A0F02"/>
<stop offset="1" stop-color="#780F13"/>
</linearGradient>
<linearGradient id="paint5_linear_9_112" x1="66.8799" y1="71.3798" x2="43.0145" y2="62.4506" gradientUnits="userSpaceOnUse">
<stop stop-color="#590A0D"/>
<stop offset="1" stop-color="#8C0D28"/>
</linearGradient>
<linearGradient id="paint6_linear_9_112" x1="45.7142" y1="82.7767" x2="30.5303" y2="59.1826" gradientUnits="userSpaceOnUse">
<stop stop-color="#640821"/>
<stop offset="1" stop-color="#C1083C"/>
</linearGradient>
<linearGradient id="paint7_linear_9_112" x1="24.354" y1="75.1788" x2="20.8576" y2="48.8122" gradientUnits="userSpaceOnUse">
<stop stop-color="#A10842"/>
<stop offset="1" stop-color="#DA0439"/>
</linearGradient>
<linearGradient id="paint8_linear_9_112" x1="5.90674" y1="59.3832" x2="22.4675" y2="36.0425" gradientUnits="userSpaceOnUse">
<stop stop-color="#E60061"/>
<stop offset="1" stop-color="#E52312"/>
</linearGradient>
<linearGradient id="paint9_linear_9_112" x1="3.77082" y1="37.9894" x2="28.1333" y2="25.9684" gradientUnits="userSpaceOnUse">
<stop stop-color="#EA4B55"/>
<stop offset="1" stop-color="#E7460F"/>
</linearGradient>
</defs>
</svg>
